<svg xmlns="http://www.w3.org/2000/svg" xmlns:xlink="http://www.w3.org/1999/xlink" viewBox="0 0 252.9 50.73"><defs><style>.afe5e5c5-7504-47a8-8815-13e08c95d950{fill:#f7941d;}.acd9a1b6-7b7c-45c3-ad28-f7f2c6319057{fill:#3eaf49;}.bd9b19ea-b5e0-4342-935b-737bcb4e80eb{fill:url(#bb3a047c-9d0e-4ee9-914c-795e461daea2);}.a961b810-3d47-4de5-a69d-ec9a73eaa8ce{fill:url(#ed035166-932c-4cc8-b2bb-404581a496c3);}</style><linearGradient id="bb3a047c-9d0e-4ee9-914c-795e461daea2" x1="56.84" y1="-7.12" x2="25.34" y2="-27.93" gradientTransform="matrix(1, 0, 0, -1, 0, 7.89)" gradientUnits="userSpaceOnUse"><stop offset="0" stop-color="#d2de26"></stop><stop offset="1" stop-color="#3eaf49"></stop></linearGradient><radialGradient id="ed035166-932c-4cc8-b2bb-404581a496c3" cx="35.33" cy="-13.2" r="35.1" gradientTransform="matrix(1, 0, 0, -1, 0, 7.89)" gradientUnits="userSpaceOnUse"><stop offset="0" stop-color="#ffda2c"></stop><stop offset="0.2" stop-color="#fdc528"></stop><stop offset="0.51" stop-color="#faaa22"></stop><stop offset="0.79" stop-color="#f89a1e"></stop><stop offset="1" stop-color="#f7941d"></stop></radialGradient></defs><g id="b424b51e-2f2f-482f-8b40-463ecdb043c9" data-name="Capa 2"><g id="b1a88129-2b60-46cb-94c0-d1524705f56c" data-name="Capa 1"><path class="afe5e5c5-7504-47a8-8815-13e08c95d950" d="M85.23,14.81a10.93,10.93,0,0,0-3.45-2.38,11.91,11.91,0,0,0-4.48-.91,11.18,11.18,0,0,0-7.72,3.38,10.54,10.54,0,0,0-2.25,3.46,10.88,10.88,0,0,0-.81,4.21,12.07,12.07,0,0,0,1,4.43,10.93,10.93,0,0,0,2.35,3.47,10.57,10.57,0,0,0,3.47,2.26,11.36,11.36,0,0,0,4.36.8,7.47,7.47,0,0,0,3-.44q1.44-.54,2.82-1.17l-.36-1.47a18.93,18.93,0,0,1-4.47.76,7.07,7.07,0,0,1-3.36-.72,6.52,6.52,0,0,1-2.21-1.79,7.1,7.1,0,0,1-1.21-2.37,14.32,14.32,0,0,1-.51-2.51H88V22.48a10.51,10.51,0,0,0-2.86-7.67ZM71.44,21.05a11.68,11.68,0,0,1,.54-2.6,7.38,7.38,0,0,1,1.1-2.21,5.67,5.67,0,0,1,1.7-1.57,4.48,4.48,0,0,1,2.35-.6h.09a5.27,5.27,0,0,1,4,1.65,9.22,9.22,0,0,1,1.93,5.33Z"></path><path class="afe5e5c5-7504-47a8-8815-13e08c95d950" d="M106.79,23.2a13.91,13.91,0,0,1-.44,3.8,6.17,6.17,0,0,1-1.28,2.41,4.47,4.47,0,0,1-2,1.25,7.61,7.61,0,0,1-2.55.32,6.41,6.41,0,0,1-2.46-.34,3.81,3.81,0,0,1-1.79-1.27A5.93,5.93,0,0,1,95.19,27a15.63,15.63,0,0,1-.36-3.73v-12H89.7V21.81a18.43,18.43,0,0,0,.6,4.9,9.41,9.41,0,0,0,1.93,3.69,8.54,8.54,0,0,0,3.42,2.35,14,14,0,0,0,5.1.83q5.41,0,8.3-3.16t2.89-8.61V11.16h-5.15Z"></path><path class="afe5e5c5-7504-47a8-8815-13e08c95d950" d="M126.66,11.2q-6.42,0-9.78,3.16A11.19,11.19,0,0,0,113.52,23V33.58h5.15V21.18a8.84,8.84,0,0,1,.69-3.73,6.5,6.5,0,0,1,1.82-2.4,6.81,6.81,0,0,1,2.5-1.27,9,9,0,0,1,2.78-.34h1.12a7.88,7.88,0,0,1,1.11.11v-2.3h-1Z"></path><path class="afe5e5c5-7504-47a8-8815-13e08c95d950" d="M148.94,14.67a9.65,9.65,0,0,0-3.42-2.48,11.93,11.93,0,0,0-5-.94,13.21,13.21,0,0,0-5.28.94,9.82,9.82,0,0,0-3.58,2.48,10,10,0,0,0-2.06,3.56,14,14,0,0,0-.71,4.21,15,15,0,0,0,.76,4.25,9.6,9.6,0,0,0,2.06,3.55,9.49,9.49,0,0,0,3.55,2.44,13.65,13.65,0,0,0,5.26.9,12.77,12.77,0,0,0,5-.9,9.25,9.25,0,0,0,5.41-5.93,16.64,16.64,0,0,0,.74-4.31,15.47,15.47,0,0,0-.76-4.21A10.45,10.45,0,0,0,148.94,14.67Zm-2.37,8.53a13.91,13.91,0,0,1-.44,3.8,6.17,6.17,0,0,1-1.28,2.41,4.47,4.47,0,0,1-2,1.25,7.61,7.61,0,0,1-2.55.32,7.09,7.09,0,0,1-2.55-.34,4.55,4.55,0,0,1-2-1.27,5.82,5.82,0,0,1-1.23-2.44,13.06,13.06,0,0,1-.45-3.73V21.63a13.13,13.13,0,0,1,.45-3.74,5.85,5.85,0,0,1,1.28-2.39,4.66,4.66,0,0,1,2-1.28,7.31,7.31,0,0,1,2.55-.33,7.86,7.86,0,0,1,2.55.31,4.53,4.53,0,0,1,2,1.25,6.21,6.21,0,0,1,1.28,2.42,14.43,14.43,0,0,1,.44,3.76Z"></path><path class="afe5e5c5-7504-47a8-8815-13e08c95d950" d="M173,14.56a8.71,8.71,0,0,0-3.43-2.35,14.11,14.11,0,0,0-5.1-.83c-3.62,0-6.38,1-8.3,3.16s-2.89,5-2.89,8.61V33.53h5.15V21.76a13.27,13.27,0,0,1,.45-3.76,5.94,5.94,0,0,1,1.27-2.42,4.42,4.42,0,0,1,2-1.25,7.79,7.79,0,0,1,2.54-.33,6.72,6.72,0,0,1,2.47.34A4.07,4.07,0,0,1,169,15.61,6.37,6.37,0,0,1,170,18a16.73,16.73,0,0,1,.36,3.73v11.8h5.14V23.15a18.85,18.85,0,0,0-.6-4.9A9.39,9.39,0,0,0,173,14.56Z"></path><path class="afe5e5c5-7504-47a8-8815-13e08c95d950" d="M209,0h-5V11.11h-9.89v12a14,14,0,0,1-.45,3.76,6,6,0,0,1-1.27,2.41,4.47,4.47,0,0,1-2,1.25,7.61,7.61,0,0,1-2.55.32,6.41,6.41,0,0,1-2.46-.34,3.81,3.81,0,0,1-1.79-1.27,5.93,5.93,0,0,1-1.08-2.4,15.63,15.63,0,0,1-.36-3.73v-12h-5.14v10.7a18.43,18.43,0,0,0,.6,4.9,9.41,9.41,0,0,0,1.93,3.69A8.54,8.54,0,0,0,183,32.75a14,14,0,0,0,5.1.83q5.4,0,8.3-3.16c1.92-2.11,2.89-5,2.89-8.61v-8.1H204V33.62h5V13.71h5.19v-2.6H209Z"></path><path class="afe5e5c5-7504-47a8-8815-13e08c95d950" d="M227.79,11.2q-6.42,0-9.78,3.16A11.17,11.17,0,0,0,214.63,23V33.58h5.15V21.18a8.84,8.84,0,0,1,.69-3.73,6.47,6.47,0,0,1,1.81-2.4,6.93,6.93,0,0,1,2.51-1.27,8.92,8.92,0,0,1,2.77-.34h1.12a8,8,0,0,1,1.12.11v-2.3h-1Z"></path><path class="afe5e5c5-7504-47a8-8815-13e08c95d950" d="M252.08,17.78A8.71,8.71,0,0,0,246.52,12a15.69,15.69,0,0,0-5.26-.78,14.15,14.15,0,0,0-5,.78,8.75,8.75,0,0,0-3.4,2.24,9.25,9.25,0,0,0-2,3.51,16.76,16.76,0,0,0-.76,4.66,16.69,16.69,0,0,0,.76,4.65,9.25,9.25,0,0,0,2,3.51,8.59,8.59,0,0,0,3.4,2.22,14.64,14.64,0,0,0,5,.76,8.34,8.34,0,0,0,1.86-.2,5.17,5.17,0,0,0,1.63-.72,7.16,7.16,0,0,0,1.5-1.41,16.61,16.61,0,0,0,1.5-2.28l-.05,4.47v.14h5.2V22.44A17.21,17.21,0,0,0,252.08,17.78Zm-4.38,3.94A11.82,11.82,0,0,1,246,28.61a5.14,5.14,0,0,1-4.55,2.33,7.54,7.54,0,0,1-2.55-.32,4.42,4.42,0,0,1-2-1.25A5.79,5.79,0,0,1,235.62,27a13.27,13.27,0,0,1-.45-3.76V21.63a13.27,13.27,0,0,1,.45-3.76,5.94,5.94,0,0,1,1.27-2.42,4.42,4.42,0,0,1,2-1.25,7.8,7.8,0,0,1,2.55-.31,7.37,7.37,0,0,1,2.55.33,4.78,4.78,0,0,1,2,1.28,6.07,6.07,0,0,1,1.27,2.39,13.49,13.49,0,0,1,.45,3.74Z"></path><path class="acd9a1b6-7b7c-45c3-ad28-f7f2c6319057" d="M67.21,41.22h.85v1.2h0A2.34,2.34,0,0,1,70.31,41c2,0,2.54,1,2.54,2.67v4.47H72V43.83c0-1.2-.39-2.1-1.76-2.1a2.19,2.19,0,0,0-2.19,2.19,1.21,1.21,0,0,0,0,.19v4h-.85Z"></path><path class="acd9a1b6-7b7c-45c3-ad28-f7f2c6319057" d="M75.72,43.35c.08-1.63,1.22-2.35,2.8-2.35,1.22,0,2.55.37,2.55,2.23v3.69a.46.46,0,0,0,.4.51h.1a.66.66,0,0,0,.27-.06v.72a2.53,2.53,0,0,1-.55,0c-.86,0-1-.48-1-1.21h0a2.67,2.67,0,0,1-2.53,1.41c-1.28,0-2.33-.63-2.33-2,0-2,1.9-2,3.73-2.23.7-.08,1.09-.18,1.09-.94,0-1.15-.82-1.43-1.82-1.43a1.64,1.64,0,0,0-1.86,1.62Zm4.52,1h0c-.11.2-.48.27-.71.31-1.44.25-3.23.24-3.23,1.6a1.43,1.43,0,0,0,1.5,1.37h0a2.24,2.24,0,0,0,2.42-2,.66.66,0,0,1,0-.14Z"></path><path class="acd9a1b6-7b7c-45c3-ad28-f7f2c6319057" d="M85.52,41.22h1.41v.71H85.52v4.68c0,.56.08.88.69.92h.72v.72h-.75c-1.13,0-1.52-.37-1.51-1.56V41.93H83.41v-.71h1.21V39.13h.9Z"></path><path class="acd9a1b6-7b7c-45c3-ad28-f7f2c6319057" d="M95.07,48.16h-.78V46.91h0a2.6,2.6,0,0,1-2.4,1.45c-1.75,0-2.43-1-2.43-2.63V41.22h.84v4.52c0,1.25.52,1.91,1.86,1.91s2.09-1.37,2.09-2.78V41.22h.84Z"></path><path class="acd9a1b6-7b7c-45c3-ad28-f7f2c6319057" d="M98,41.22h.78v1.63h0a2.54,2.54,0,0,1,2.62-1.72V42a2.39,2.39,0,0,0-2.58,2.19,1.5,1.5,0,0,0,0,.3v3.7H98Z"></path><path class="acd9a1b6-7b7c-45c3-ad28-f7f2c6319057" d="M103.52,43.35c.08-1.63,1.23-2.33,2.81-2.33,1.23,0,2.56.37,2.56,2.23v3.69a.44.44,0,0,0,.38.51h.12a.66.66,0,0,0,.27-.06v.72a2.62,2.62,0,0,1-.56,0c-.86,0-1-.48-1-1.21h0a2.67,2.67,0,0,1-2.58,1.46c-1.28,0-2.32-.63-2.32-2,0-2,1.89-2,3.72-2.23.7-.08,1.09-.18,1.09-.94,0-1.15-.82-1.43-1.81-1.43a1.65,1.65,0,0,0-1.86,1.62Zm4.52,1h0c-.1.2-.48.27-.71.31-1.44.25-3.23.24-3.23,1.6a1.44,1.44,0,0,0,1.52,1.37h0a2.23,2.23,0,0,0,2.41-2,.76.76,0,0,1,0-.15Z"></path><path class="acd9a1b6-7b7c-45c3-ad28-f7f2c6319057" d="M111.94,38.56h.85v9.6h-.85Z"></path><path class="acd9a1b6-7b7c-45c3-ad28-f7f2c6319057" d="M126.3,46.91a3.67,3.67,0,0,1-2.78,1.45,2.63,2.63,0,0,1-3-2.23,2.36,2.36,0,0,1,0-.46c0-1.37,1.28-2.27,2.36-2.85a3.92,3.92,0,0,1-1.19-2.31,2.14,2.14,0,0,1,4.26,0c0,1.19-.93,1.88-1.89,2.49l2.1,2.52a3.45,3.45,0,0,0,.36-1.61h.85a5.24,5.24,0,0,1-.56,2.3l1.61,2h-1.1Zm-2.92-3.54c-.92.5-2,1.23-2,2.38a2,2,0,0,0,2.09,1.9h0a2.88,2.88,0,0,0,2.27-1.37Zm-.8-2.86a3.66,3.66,0,0,0,1.08,1.93c.67-.41,1.48-1,1.48-1.93a1.28,1.28,0,0,0-2.56,0Z"></path><path class="acd9a1b6-7b7c-45c3-ad28-f7f2c6319057" d="M135.52,38.56h.85v3.86h0A2.34,2.34,0,0,1,138.58,41c2,0,2.54,1,2.54,2.67v4.47h-.85V43.83c0-1.2-.39-2.1-1.76-2.1a2.19,2.19,0,0,0-2.19,2.19,1.21,1.21,0,0,0,0,.19v4h-.81Z"></path><path class="acd9a1b6-7b7c-45c3-ad28-f7f2c6319057" d="M144.52,44.92c0,1.24.66,2.73,2.29,2.73A2.13,2.13,0,0,0,149,45.87h.85a2.85,2.85,0,0,1-3,2.49c-2.21,0-3.13-1.69-3.13-3.67,0-1.83.92-3.67,3.13-3.67s3.12,2,3,3.9Zm4.5-.71a2.35,2.35,0,0,0-2.2-2.48h0a2.46,2.46,0,0,0-2.29,2.48Z"></path><path class="acd9a1b6-7b7c-45c3-ad28-f7f2c6319057" d="M152.31,43.35c.08-1.63,1.21-2.35,2.81-2.35,1.23,0,2.56.37,2.56,2.23v3.69a.44.44,0,0,0,.38.51h.12a.66.66,0,0,0,.27-.06v.72a2.62,2.62,0,0,1-.56,0c-.86,0-1-.48-1-1.21h0a2.66,2.66,0,0,1-2.53,1.41c-1.28,0-2.32-.63-2.32-2,0-2,1.89-2,3.72-2.23.7-.08,1.09-.18,1.09-.94,0-1.15-.82-1.43-1.81-1.43a1.65,1.65,0,0,0-1.86,1.62Zm4.52,1h0c-.1.2-.48.27-.71.31-1.44.25-3.23.24-3.23,1.6a1.44,1.44,0,0,0,1.52,1.37h0a2.23,2.23,0,0,0,2.41-2,.76.76,0,0,1,0-.15Z"></path><path class="acd9a1b6-7b7c-45c3-ad28-f7f2c6319057" d="M160.73,38.56h.85v9.6h-.85Z"></path><path class="acd9a1b6-7b7c-45c3-ad28-f7f2c6319057" d="M165.9,41.22h1.41v.71H165.9v4.68c0,.56.08.88.68.92a4.45,4.45,0,0,0,.73,0v.72h-.75c-1.13,0-1.52-.37-1.51-1.56V41.93h-1.21v-.71h1.21V39.13h.85Z"></path><path class="acd9a1b6-7b7c-45c3-ad28-f7f2c6319057" d="M169.87,38.56h.84v3.86h0a2.35,2.35,0,0,1,2.22-1.4c2,0,2.54,1,2.54,2.67v4.47h-.85V43.83c0-1.2-.38-2.1-1.76-2.1a2.19,2.19,0,0,0-2.19,2.19,1.21,1.21,0,0,0,0,.19v4h-.84Z"></path><path class="acd9a1b6-7b7c-45c3-ad28-f7f2c6319057" d="M177.67,41.22h.9l2.29,5.92L183,41.22h.85l-3,8c-.48,1.17-.77,1.51-1.83,1.51a2,2,0,0,1-.65-.07V50a2.79,2.79,0,0,0,.58.07c.76,0,.93-.45,1.21-1.09l.3-.8Z"></path><path class="acd9a1b6-7b7c-45c3-ad28-f7f2c6319057" d="M195.26,43.25a1.59,1.59,0,0,0-1.65-1.53h-.16c-.76,0-1.64.3-1.64,1.2s.86,1,1.44,1.17l1.13.25a2,2,0,0,1,2,1.93c0,1.5-1.49,2.08-2.78,2.08a2.51,2.51,0,0,1-2.83-2.15c0-.1,0-.2,0-.3h.77a1.83,1.83,0,0,0,1.91,1.75h.09c.79,0,1.9-.35,1.9-1.32,0-.81-.76-1.07-1.53-1.26l-1.08-.24c-1.11-.3-1.94-.68-1.94-1.86,0-1.41,1.38-2,2.61-2A2.3,2.3,0,0,1,196,43.2Z"></path><path class="acd9a1b6-7b7c-45c3-ad28-f7f2c6319057" d="M205.14,44.69c0,2-1.16,3.67-3.29,3.67s-3.28-1.68-3.28-3.67S199.73,41,201.85,41,205.14,42.7,205.14,44.69Zm-5.72,0c0,1.48.81,3,2.43,3s2.44-1.48,2.44-3-.81-3-2.44-3S199.42,43.21,199.42,44.69Z"></path><path class="acd9a1b6-7b7c-45c3-ad28-f7f2c6319057" d="M207.76,38.56h.85v9.6h-.85Z"></path><path class="acd9a1b6-7b7c-45c3-ad28-f7f2c6319057" d="M217.2,48.16h-.78V46.91h0a2.6,2.6,0,0,1-2.4,1.45c-1.75,0-2.43-1-2.43-2.63V41.22h.84v4.52c0,1.25.52,1.91,1.86,1.91s2.09-1.37,2.09-2.78V41.22h.84Z"></path><path class="acd9a1b6-7b7c-45c3-ad28-f7f2c6319057" d="M221.52,41.22h1.42v.71h-1.42v4.68c0,.56.08.88.69.92h.73v.72h-.76c-1.13,0-1.52-.37-1.5-1.56V41.93h-1.22v-.71h1.22V39.13h.84Z"></path><path class="acd9a1b6-7b7c-45c3-ad28-f7f2c6319057" d="M225.52,38.56h.85v1.35h-.85Zm0,2.66h.85v6.94h-.85Z"></path><path class="acd9a1b6-7b7c-45c3-ad28-f7f2c6319057" d="M235.52,44.69c0,2-1.15,3.67-3.28,3.67S229,46.68,229,44.69,230.12,41,232.24,41,235.52,42.7,235.52,44.69Zm-5.71,0c0,1.48.8,3,2.43,3s2.44-1.48,2.44-3-.81-3-2.44-3S229.81,43.21,229.81,44.69Z"></path><path class="acd9a1b6-7b7c-45c3-ad28-f7f2c6319057" d="M238.12,41.22H239v1.2h0a2.35,2.35,0,0,1,2.22-1.4c1.95,0,2.55,1,2.55,2.67v4.47h-.85V43.83c0-1.2-.39-2.1-1.76-2.1a2.17,2.17,0,0,0-2.19,2.17,1.48,1.48,0,0,0,0,.21v4h-.85Z"></path><path class="acd9a1b6-7b7c-45c3-ad28-f7f2c6319057" d="M250.86,43.25a1.6,1.6,0,0,0-1.67-1.53H249c-.75,0-1.64.3-1.64,1.2s.86,1,1.44,1.17l1.13.25a2,2,0,0,1,2,1.93c0,1.5-1.49,2.08-2.79,2.08a2.52,2.52,0,0,1-2.83-2.17,1.32,1.32,0,0,1,0-.28h.85a1.83,1.83,0,0,0,1.91,1.75h.09c.8,0,1.9-.35,1.9-1.32,0-.81-.75-1.07-1.52-1.26l-1-.24c-1.1-.3-1.94-.68-1.94-1.86,0-1.41,1.39-2,2.61-2a2.27,2.27,0,0,1,2.53,2c0,.08,0,.16,0,.24Z"></path><path class="bd9b19ea-b5e0-4342-935b-737bcb4e80eb" d="M35.89,28.57c-6.19,5-13.47,8.12-20.71,11.3-4,1.78-12.23,4.42-12.41,9.66a11.84,11.84,0,0,1,2-.78,198.27,198.27,0,0,1,21.45-3.13c6.42-.73,12.92-1.09,19.31-2,3.73-.55,7.7-1.32,10.93-3.39,12-7.67-.74-24.17-6.77-31.42-2.51-3-5.15-6-7.9-8.81a33.13,33.13,0,0,1,2.44,9.23C45.05,17.2,42.13,23.5,35.89,28.57Z"></path><path class="a961b810-3d47-4de5-a69d-ec9a73eaa8ce" d="M1.28,45.53c6.65-10,36.27-10.52,39.87-31C32.29,24.49-7.58,15.35,1.28,45.53Z"></path></g></g></svg>